# xmcd CD Database Entry
#
# Track frame offsets:
# 150
# 13597
# 28310
# 42540
# 59980
# 71940
# 88142
# 106479
# 123579
# 143452
# 160440
# 175455
#
# Disc length: 2608 seconds
#
# Revision: 1
# Processed by: cddbd v1.4PL0 Copyright (c) Steve Scherf et al.
# Submitted via: tcd 2.0b
#
DISCID=bb0a2e0c
DTITLE=Tina Siel - Når kærlighed dør
DYEAR=1900
DGENRE=
TTITLE0=Drømme
TTITLE1=Luk op
TTITLE2=Solen er gået ned
TTITLE3=Når kærlighed dør
TTITLE4=Alt forandres
TTITLE5=En kærlighed
TTITLE6=Giv mig en drøm
TTITLE7=En dejlig drøm
TTITLE8=Jeg skal tænde en stjerne for dig
TTITLE9=Min for-glem-mig-ej
TTITLE10=Jeg gav dig min verden
TTITLE11=Alt har sin tid
EXTD=
EXTT0=
EXTT1=
EXTT2=
EXTT3=
EXTT4=
EXTT5=
EXTT6=
EXTT7=
EXTT8=
EXTT9=
EXTT10=
EXTT11=
PLAYORDER=
